# xmcd
#
# Track frame offsets: 
#        150
#        14467
#        27816
#        41918
#        55493
#        67524
#        81173
#        94335
#        107212
#        122198
#        132432
#        145985
#        157634
#        171047
#        184175
#        197969
#        210585
#        225252
#        238640
#        252024
#        263668
#        276513
#        289405
#        303408
#        317145
#        332767
#
# Disc length: 4660 seconds
#
# Revision: 0
# Processed by: cddbd v1.5.2PL0 Copyright (c) Steve Scherf et al.
# Submitted via: ExactAudioCopy v0.99pb5
#
DISCID=7912321a
DTITLE=Frederick Davidson - Treasure Island [CD04)
DYEAR=1900
DGENRE=Speech
TTITLE0=Ch19Pt01
TTITLE1=Ch19Pt02
TTITLE2=Ch19Pt03
TTITLE3=Ch19Pt04
TTITLE4=Ch20Pt01
TTITLE5=Ch20Pt02
TTITLE6=Ch20Pt03
TTITLE7=Ch20Pt04
TTITLE8=Ch21Pt01
TTITLE9=Ch21Pt02
TTITLE10=Ch21Pt03
TTITLE11=Ch21Pt04
TTITLE12=Ch22Pt01
TTITLE13=Ch22Pt02
TTITLE14=Ch22Pt03
TTITLE15=Ch22Pt04
TTITLE16=Ch23Pt01
TTITLE17=Ch23Pt02
TTITLE18=Ch23Pt03
TTITLE19=Ch24Pt01
TTITLE20=Ch24Pt02
TTITLE21=Ch24Pt03
TTITLE22=Ch24Pt04
TTITLE23=Ch25Pt01
TTITLE24=Ch25Pt02
TTITLE25=Ch25Pt03
EXTD=
EXTT0=
EXTT1=
EXTT2=
EXTT3=
EXTT4=
EXTT5=
EXTT6=
EXTT7=
EXTT8=
EXTT9=
EXTT10=
EXTT11=
EXTT12=
EXTT13=
EXTT14=
EXTT15=
EXTT16=
EXTT17=
EXTT18=
EXTT19=
EXTT20=
EXTT21=
EXTT22=
EXTT23=
EXTT24=
EXTT25=
PLAYORDER=
